<mxfile host="app.diagrams.net" modified="2021-01-05T14:53:17.310Z" agent="5.0 (Macintosh; Intel Mac OS X 11_1_0) AppleWebKit/537.36 (KHTML, like Gecko) Chrome/87.0.4280.88 Safari/537.36" etag="b2_KBxovxjqylzaWtiiu" version="14.1.2" type="github">
  <diagram id="mINsVI5tPVJWLN8sy4tB" name="Page-1">
    <mxGraphModel dx="883" dy="735" grid="1" gridSize="10" guides="1" tooltips="1" connect="1" arrows="1" fold="1" page="1" pageScale="1" pageWidth="827" pageHeight="1169" math="0" shadow="0">
      <root>
        <mxCell id="0" />
        <mxCell id="1" parent="0" />
        <mxCell id="-AxFv0E_fChkK30QdORc-210" value="" style="edgeStyle=orthogonalEdgeStyle;rounded=0;orthogonalLoop=1;jettySize=auto;html=1;endArrow=ERoneToMany;endFill=0;startArrow=ERone;startFill=0;exitX=0;exitY=0.5;exitDx=0;exitDy=0;entryX=0;entryY=0.5;entryDx=0;entryDy=0;" edge="1" parent="1" source="-AxFv0E_fChkK30QdORc-274" target="-AxFv0E_fChkK30QdORc-308">
          <mxGeometry relative="1" as="geometry">
            <mxPoint x="310" y="665" as="sourcePoint" />
            <mxPoint x="310" y="585" as="targetPoint" />
            <Array as="points">
              <mxPoint x="310" y="695" />
              <mxPoint x="310" y="335" />
            </Array>
          </mxGeometry>
        </mxCell>
        <mxCell id="-AxFv0E_fChkK30QdORc-270" value="customer" style="shape=table;startSize=30;container=1;collapsible=1;childLayout=tableLayout;fixedRows=1;rowLines=0;fontStyle=1;align=center;resizeLast=1;" vertex="1" parent="1">
          <mxGeometry x="330" y="650" width="210" height="310" as="geometry" />
        </mxCell>
        <mxCell id="-AxFv0E_fChkK30QdORc-274" value="" style="shape=partialRectangle;collapsible=0;dropTarget=0;pointerEvents=0;fillColor=none;top=0;left=0;bottom=1;right=0;points=[[0,0.5],[1,0.5]];portConstraint=eastwest;" vertex="1" parent="-AxFv0E_fChkK30QdORc-270">
          <mxGeometry y="30" width="210" height="30" as="geometry" />
        </mxCell>
        <mxCell id="-AxFv0E_fChkK30QdORc-275" value="PK" style="shape=partialRectangle;connectable=0;fillColor=none;top=0;left=0;bottom=0;right=0;fontStyle=1;overflow=hidden;" vertex="1" parent="-AxFv0E_fChkK30QdORc-274">
          <mxGeometry width="60" height="30" as="geometry" />
        </mxCell>
        <mxCell id="-AxFv0E_fChkK30QdORc-276" value="akeed_customer_id" style="shape=partialRectangle;connectable=0;fillColor=none;top=0;left=0;bottom=0;right=0;align=left;spacingLeft=6;fontStyle=5;overflow=hidden;" vertex="1" parent="-AxFv0E_fChkK30QdORc-274">
          <mxGeometry x="60" width="150" height="30" as="geometry" />
        </mxCell>
        <mxCell id="-AxFv0E_fChkK30QdORc-277" value="" style="shape=partialRectangle;collapsible=0;dropTarget=0;pointerEvents=0;fillColor=none;top=0;left=0;bottom=0;right=0;points=[[0,0.5],[1,0.5]];portConstraint=eastwest;" vertex="1" parent="-AxFv0E_fChkK30QdORc-270">
          <mxGeometry y="60" width="210" height="30" as="geometry" />
        </mxCell>
        <mxCell id="-AxFv0E_fChkK30QdORc-278" value="" style="shape=partialRectangle;connectable=0;fillColor=none;top=0;left=0;bottom=0;right=0;editable=1;overflow=hidden;" vertex="1" parent="-AxFv0E_fChkK30QdORc-277">
          <mxGeometry width="60" height="30" as="geometry" />
        </mxCell>
        <mxCell id="-AxFv0E_fChkK30QdORc-279" value="gender" style="shape=partialRectangle;connectable=0;fillColor=none;top=0;left=0;bottom=0;right=0;align=left;spacingLeft=6;overflow=hidden;" vertex="1" parent="-AxFv0E_fChkK30QdORc-277">
          <mxGeometry x="60" width="150" height="30" as="geometry" />
        </mxCell>
        <mxCell id="-AxFv0E_fChkK30QdORc-280" value="" style="shape=partialRectangle;collapsible=0;dropTarget=0;pointerEvents=0;fillColor=none;top=0;left=0;bottom=0;right=0;points=[[0,0.5],[1,0.5]];portConstraint=eastwest;" vertex="1" parent="-AxFv0E_fChkK30QdORc-270">
          <mxGeometry y="90" width="210" height="30" as="geometry" />
        </mxCell>
        <mxCell id="-AxFv0E_fChkK30QdORc-281" value="" style="shape=partialRectangle;connectable=0;fillColor=none;top=0;left=0;bottom=0;right=0;editable=1;overflow=hidden;" vertex="1" parent="-AxFv0E_fChkK30QdORc-280">
          <mxGeometry width="60" height="30" as="geometry" />
        </mxCell>
        <mxCell id="-AxFv0E_fChkK30QdORc-282" value="dob" style="shape=partialRectangle;connectable=0;fillColor=none;top=0;left=0;bottom=0;right=0;align=left;spacingLeft=6;overflow=hidden;" vertex="1" parent="-AxFv0E_fChkK30QdORc-280">
          <mxGeometry x="60" width="150" height="30" as="geometry" />
        </mxCell>
        <mxCell id="-AxFv0E_fChkK30QdORc-289" style="shape=partialRectangle;collapsible=0;dropTarget=0;pointerEvents=0;fillColor=none;top=0;left=0;bottom=0;right=0;points=[[0,0.5],[1,0.5]];portConstraint=eastwest;" vertex="1" parent="-AxFv0E_fChkK30QdORc-270">
          <mxGeometry y="120" width="210" height="30" as="geometry" />
        </mxCell>
        <mxCell id="-AxFv0E_fChkK30QdORc-290" style="shape=partialRectangle;connectable=0;fillColor=none;top=0;left=0;bottom=0;right=0;editable=1;overflow=hidden;" vertex="1" parent="-AxFv0E_fChkK30QdORc-289">
          <mxGeometry width="60" height="30" as="geometry" />
        </mxCell>
        <mxCell id="-AxFv0E_fChkK30QdORc-291" value="status" style="shape=partialRectangle;connectable=0;fillColor=none;top=0;left=0;bottom=0;right=0;align=left;spacingLeft=6;overflow=hidden;" vertex="1" parent="-AxFv0E_fChkK30QdORc-289">
          <mxGeometry x="60" width="150" height="30" as="geometry" />
        </mxCell>
        <mxCell id="-AxFv0E_fChkK30QdORc-286" style="shape=partialRectangle;collapsible=0;dropTarget=0;pointerEvents=0;fillColor=none;top=0;left=0;bottom=0;right=0;points=[[0,0.5],[1,0.5]];portConstraint=eastwest;" vertex="1" parent="-AxFv0E_fChkK30QdORc-270">
          <mxGeometry y="150" width="210" height="30" as="geometry" />
        </mxCell>
        <mxCell id="-AxFv0E_fChkK30QdORc-287" style="shape=partialRectangle;connectable=0;fillColor=none;top=0;left=0;bottom=0;right=0;editable=1;overflow=hidden;" vertex="1" parent="-AxFv0E_fChkK30QdORc-286">
          <mxGeometry width="60" height="30" as="geometry" />
        </mxCell>
        <mxCell id="-AxFv0E_fChkK30QdORc-288" value="verified" style="shape=partialRectangle;connectable=0;fillColor=none;top=0;left=0;bottom=0;right=0;align=left;spacingLeft=6;overflow=hidden;" vertex="1" parent="-AxFv0E_fChkK30QdORc-286">
          <mxGeometry x="60" width="150" height="30" as="geometry" />
        </mxCell>
        <mxCell id="-AxFv0E_fChkK30QdORc-283" style="shape=partialRectangle;collapsible=0;dropTarget=0;pointerEvents=0;fillColor=none;top=0;left=0;bottom=0;right=0;points=[[0,0.5],[1,0.5]];portConstraint=eastwest;" vertex="1" parent="-AxFv0E_fChkK30QdORc-270">
          <mxGeometry y="180" width="210" height="30" as="geometry" />
        </mxCell>
        <mxCell id="-AxFv0E_fChkK30QdORc-284" style="shape=partialRectangle;connectable=0;fillColor=none;top=0;left=0;bottom=0;right=0;editable=1;overflow=hidden;" vertex="1" parent="-AxFv0E_fChkK30QdORc-283">
          <mxGeometry width="60" height="30" as="geometry" />
        </mxCell>
        <mxCell id="-AxFv0E_fChkK30QdORc-285" value="language" style="shape=partialRectangle;connectable=0;fillColor=none;top=0;left=0;bottom=0;right=0;align=left;spacingLeft=6;overflow=hidden;" vertex="1" parent="-AxFv0E_fChkK30QdORc-283">
          <mxGeometry x="60" width="150" height="30" as="geometry" />
        </mxCell>
        <mxCell id="-AxFv0E_fChkK30QdORc-329" style="shape=partialRectangle;collapsible=0;dropTarget=0;pointerEvents=0;fillColor=none;top=0;left=0;bottom=0;right=0;points=[[0,0.5],[1,0.5]];portConstraint=eastwest;" vertex="1" parent="-AxFv0E_fChkK30QdORc-270">
          <mxGeometry y="210" width="210" height="30" as="geometry" />
        </mxCell>
        <mxCell id="-AxFv0E_fChkK30QdORc-330" style="shape=partialRectangle;connectable=0;fillColor=none;top=0;left=0;bottom=0;right=0;editable=1;overflow=hidden;" vertex="1" parent="-AxFv0E_fChkK30QdORc-329">
          <mxGeometry width="60" height="30" as="geometry" />
        </mxCell>
        <mxCell id="-AxFv0E_fChkK30QdORc-331" value="created_at" style="shape=partialRectangle;connectable=0;fillColor=none;top=0;left=0;bottom=0;right=0;align=left;spacingLeft=6;overflow=hidden;" vertex="1" parent="-AxFv0E_fChkK30QdORc-329">
          <mxGeometry x="60" width="150" height="30" as="geometry" />
        </mxCell>
        <mxCell id="-AxFv0E_fChkK30QdORc-326" style="shape=partialRectangle;collapsible=0;dropTarget=0;pointerEvents=0;fillColor=none;top=0;left=0;bottom=0;right=0;points=[[0,0.5],[1,0.5]];portConstraint=eastwest;" vertex="1" parent="-AxFv0E_fChkK30QdORc-270">
          <mxGeometry y="240" width="210" height="30" as="geometry" />
        </mxCell>
        <mxCell id="-AxFv0E_fChkK30QdORc-327" style="shape=partialRectangle;connectable=0;fillColor=none;top=0;left=0;bottom=0;right=0;editable=1;overflow=hidden;" vertex="1" parent="-AxFv0E_fChkK30QdORc-326">
          <mxGeometry width="60" height="30" as="geometry" />
        </mxCell>
        <mxCell id="-AxFv0E_fChkK30QdORc-328" value="updated_at" style="shape=partialRectangle;connectable=0;fillColor=none;top=0;left=0;bottom=0;right=0;align=left;spacingLeft=6;overflow=hidden;" vertex="1" parent="-AxFv0E_fChkK30QdORc-326">
          <mxGeometry x="60" width="150" height="30" as="geometry" />
        </mxCell>
        <mxCell id="-AxFv0E_fChkK30QdORc-323" style="shape=partialRectangle;collapsible=0;dropTarget=0;pointerEvents=0;fillColor=none;top=0;left=0;bottom=0;right=0;points=[[0,0.5],[1,0.5]];portConstraint=eastwest;" vertex="1" parent="-AxFv0E_fChkK30QdORc-270">
          <mxGeometry y="270" width="210" height="30" as="geometry" />
        </mxCell>
        <mxCell id="-AxFv0E_fChkK30QdORc-324" style="shape=partialRectangle;connectable=0;fillColor=none;top=0;left=0;bottom=0;right=0;editable=1;overflow=hidden;" vertex="1" parent="-AxFv0E_fChkK30QdORc-323">
          <mxGeometry width="60" height="30" as="geometry" />
        </mxCell>
        <mxCell id="-AxFv0E_fChkK30QdORc-325" style="shape=partialRectangle;connectable=0;fillColor=none;top=0;left=0;bottom=0;right=0;align=left;spacingLeft=6;overflow=hidden;" vertex="1" parent="-AxFv0E_fChkK30QdORc-323">
          <mxGeometry x="60" width="150" height="30" as="geometry" />
        </mxCell>
        <mxCell id="-AxFv0E_fChkK30QdORc-292" value="Orders" style="shape=table;startSize=30;container=1;collapsible=1;childLayout=tableLayout;fixedRows=1;rowLines=0;fontStyle=1;align=center;resizeLast=1;" vertex="1" parent="1">
          <mxGeometry x="340" y="260" width="180" height="310" as="geometry" />
        </mxCell>
        <mxCell id="-AxFv0E_fChkK30QdORc-293" value="" style="shape=partialRectangle;collapsible=0;dropTarget=0;pointerEvents=0;fillColor=none;top=0;left=0;bottom=0;right=0;points=[[0,0.5],[1,0.5]];portConstraint=eastwest;" vertex="1" parent="-AxFv0E_fChkK30QdORc-292">
          <mxGeometry y="30" width="180" height="30" as="geometry" />
        </mxCell>
        <mxCell id="-AxFv0E_fChkK30QdORc-294" value="PK" style="shape=partialRectangle;connectable=0;fillColor=none;top=0;left=0;bottom=0;right=0;fontStyle=1;overflow=hidden;" vertex="1" parent="-AxFv0E_fChkK30QdORc-293">
          <mxGeometry width="60" height="30" as="geometry" />
        </mxCell>
        <mxCell id="-AxFv0E_fChkK30QdORc-295" value="akeed_order_id" style="shape=partialRectangle;connectable=0;fillColor=none;top=0;left=0;bottom=0;right=0;align=left;spacingLeft=6;fontStyle=5;overflow=hidden;" vertex="1" parent="-AxFv0E_fChkK30QdORc-293">
          <mxGeometry x="60" width="120" height="30" as="geometry" />
        </mxCell>
        <mxCell id="-AxFv0E_fChkK30QdORc-308" style="shape=partialRectangle;collapsible=0;dropTarget=0;pointerEvents=0;fillColor=none;top=0;left=0;bottom=0;right=0;points=[[0,0.5],[1,0.5]];portConstraint=eastwest;" vertex="1" parent="-AxFv0E_fChkK30QdORc-292">
          <mxGeometry y="60" width="180" height="30" as="geometry" />
        </mxCell>
        <mxCell id="-AxFv0E_fChkK30QdORc-309" value="FK" style="shape=partialRectangle;connectable=0;fillColor=none;top=0;left=0;bottom=0;right=0;fontStyle=1;overflow=hidden;" vertex="1" parent="-AxFv0E_fChkK30QdORc-308">
          <mxGeometry width="60" height="30" as="geometry" />
        </mxCell>
        <mxCell id="-AxFv0E_fChkK30QdORc-310" value="customer_id" style="shape=partialRectangle;connectable=0;fillColor=none;top=0;left=0;bottom=0;right=0;align=left;spacingLeft=6;fontStyle=5;overflow=hidden;" vertex="1" parent="-AxFv0E_fChkK30QdORc-308">
          <mxGeometry x="60" width="120" height="30" as="geometry" />
        </mxCell>
        <mxCell id="-AxFv0E_fChkK30QdORc-296" value="" style="shape=partialRectangle;collapsible=0;dropTarget=0;pointerEvents=0;fillColor=none;top=0;left=0;bottom=1;right=0;points=[[0,0.5],[1,0.5]];portConstraint=eastwest;" vertex="1" parent="-AxFv0E_fChkK30QdORc-292">
          <mxGeometry y="90" width="180" height="30" as="geometry" />
        </mxCell>
        <mxCell id="-AxFv0E_fChkK30QdORc-297" value="FK" style="shape=partialRectangle;connectable=0;fillColor=none;top=0;left=0;bottom=0;right=0;fontStyle=1;overflow=hidden;" vertex="1" parent="-AxFv0E_fChkK30QdORc-296">
          <mxGeometry width="60" height="30" as="geometry" />
        </mxCell>
        <mxCell id="-AxFv0E_fChkK30QdORc-298" value="vender_id" style="shape=partialRectangle;connectable=0;fillColor=none;top=0;left=0;bottom=0;right=0;align=left;spacingLeft=6;fontStyle=5;overflow=hidden;" vertex="1" parent="-AxFv0E_fChkK30QdORc-296">
          <mxGeometry x="60" width="120" height="30" as="geometry" />
        </mxCell>
        <mxCell id="-AxFv0E_fChkK30QdORc-299" value="" style="shape=partialRectangle;collapsible=0;dropTarget=0;pointerEvents=0;fillColor=none;top=0;left=0;bottom=0;right=0;points=[[0,0.5],[1,0.5]];portConstraint=eastwest;" vertex="1" parent="-AxFv0E_fChkK30QdORc-292">
          <mxGeometry y="120" width="180" height="30" as="geometry" />
        </mxCell>
        <mxCell id="-AxFv0E_fChkK30QdORc-300" value="" style="shape=partialRectangle;connectable=0;fillColor=none;top=0;left=0;bottom=0;right=0;editable=1;overflow=hidden;" vertex="1" parent="-AxFv0E_fChkK30QdORc-299">
          <mxGeometry width="60" height="30" as="geometry" />
        </mxCell>
        <mxCell id="-AxFv0E_fChkK30QdORc-301" value="item_acount" style="shape=partialRectangle;connectable=0;fillColor=none;top=0;left=0;bottom=0;right=0;align=left;spacingLeft=6;overflow=hidden;" vertex="1" parent="-AxFv0E_fChkK30QdORc-299">
          <mxGeometry x="60" width="120" height="30" as="geometry" />
        </mxCell>
        <mxCell id="-AxFv0E_fChkK30QdORc-302" value="" style="shape=partialRectangle;collapsible=0;dropTarget=0;pointerEvents=0;fillColor=none;top=0;left=0;bottom=0;right=0;points=[[0,0.5],[1,0.5]];portConstraint=eastwest;" vertex="1" parent="-AxFv0E_fChkK30QdORc-292">
          <mxGeometry y="150" width="180" height="30" as="geometry" />
        </mxCell>
        <mxCell id="-AxFv0E_fChkK30QdORc-303" value="" style="shape=partialRectangle;connectable=0;fillColor=none;top=0;left=0;bottom=0;right=0;editable=1;overflow=hidden;" vertex="1" parent="-AxFv0E_fChkK30QdORc-302">
          <mxGeometry width="60" height="30" as="geometry" />
        </mxCell>
        <mxCell id="-AxFv0E_fChkK30QdORc-304" value="grand_total" style="shape=partialRectangle;connectable=0;fillColor=none;top=0;left=0;bottom=0;right=0;align=left;spacingLeft=6;overflow=hidden;" vertex="1" parent="-AxFv0E_fChkK30QdORc-302">
          <mxGeometry x="60" width="120" height="30" as="geometry" />
        </mxCell>
        <mxCell id="-AxFv0E_fChkK30QdORc-320" style="shape=partialRectangle;collapsible=0;dropTarget=0;pointerEvents=0;fillColor=none;top=0;left=0;bottom=0;right=0;points=[[0,0.5],[1,0.5]];portConstraint=eastwest;" vertex="1" parent="-AxFv0E_fChkK30QdORc-292">
          <mxGeometry y="180" width="180" height="30" as="geometry" />
        </mxCell>
        <mxCell id="-AxFv0E_fChkK30QdORc-321" style="shape=partialRectangle;connectable=0;fillColor=none;top=0;left=0;bottom=0;right=0;editable=1;overflow=hidden;" vertex="1" parent="-AxFv0E_fChkK30QdORc-320">
          <mxGeometry width="60" height="30" as="geometry" />
        </mxCell>
        <mxCell id="-AxFv0E_fChkK30QdORc-322" value="payment_mode" style="shape=partialRectangle;connectable=0;fillColor=none;top=0;left=0;bottom=0;right=0;align=left;spacingLeft=6;overflow=hidden;" vertex="1" parent="-AxFv0E_fChkK30QdORc-320">
          <mxGeometry x="60" width="120" height="30" as="geometry" />
        </mxCell>
        <mxCell id="-AxFv0E_fChkK30QdORc-317" style="shape=partialRectangle;collapsible=0;dropTarget=0;pointerEvents=0;fillColor=none;top=0;left=0;bottom=0;right=0;points=[[0,0.5],[1,0.5]];portConstraint=eastwest;" vertex="1" parent="-AxFv0E_fChkK30QdORc-292">
          <mxGeometry y="210" width="180" height="30" as="geometry" />
        </mxCell>
        <mxCell id="-AxFv0E_fChkK30QdORc-318" style="shape=partialRectangle;connectable=0;fillColor=none;top=0;left=0;bottom=0;right=0;editable=1;overflow=hidden;" vertex="1" parent="-AxFv0E_fChkK30QdORc-317">
          <mxGeometry width="60" height="30" as="geometry" />
        </mxCell>
        <mxCell id="-AxFv0E_fChkK30QdORc-319" value="delivery_date" style="shape=partialRectangle;connectable=0;fillColor=none;top=0;left=0;bottom=0;right=0;align=left;spacingLeft=6;overflow=hidden;" vertex="1" parent="-AxFv0E_fChkK30QdORc-317">
          <mxGeometry x="60" width="120" height="30" as="geometry" />
        </mxCell>
        <mxCell id="-AxFv0E_fChkK30QdORc-314" style="shape=partialRectangle;collapsible=0;dropTarget=0;pointerEvents=0;fillColor=none;top=0;left=0;bottom=0;right=0;points=[[0,0.5],[1,0.5]];portConstraint=eastwest;" vertex="1" parent="-AxFv0E_fChkK30QdORc-292">
          <mxGeometry y="240" width="180" height="30" as="geometry" />
        </mxCell>
        <mxCell id="-AxFv0E_fChkK30QdORc-315" style="shape=partialRectangle;connectable=0;fillColor=none;top=0;left=0;bottom=0;right=0;editable=1;overflow=hidden;" vertex="1" parent="-AxFv0E_fChkK30QdORc-314">
          <mxGeometry width="60" height="30" as="geometry" />
        </mxCell>
        <mxCell id="-AxFv0E_fChkK30QdORc-316" value="created_at" style="shape=partialRectangle;connectable=0;fillColor=none;top=0;left=0;bottom=0;right=0;align=left;spacingLeft=6;overflow=hidden;" vertex="1" parent="-AxFv0E_fChkK30QdORc-314">
          <mxGeometry x="60" width="120" height="30" as="geometry" />
        </mxCell>
        <mxCell id="-AxFv0E_fChkK30QdORc-311" style="shape=partialRectangle;collapsible=0;dropTarget=0;pointerEvents=0;fillColor=none;top=0;left=0;bottom=0;right=0;points=[[0,0.5],[1,0.5]];portConstraint=eastwest;" vertex="1" parent="-AxFv0E_fChkK30QdORc-292">
          <mxGeometry y="270" width="180" height="30" as="geometry" />
        </mxCell>
        <mxCell id="-AxFv0E_fChkK30QdORc-312" style="shape=partialRectangle;connectable=0;fillColor=none;top=0;left=0;bottom=0;right=0;editable=1;overflow=hidden;" vertex="1" parent="-AxFv0E_fChkK30QdORc-311">
          <mxGeometry width="60" height="30" as="geometry" />
        </mxCell>
        <mxCell id="-AxFv0E_fChkK30QdORc-313" style="shape=partialRectangle;connectable=0;fillColor=none;top=0;left=0;bottom=0;right=0;align=left;spacingLeft=6;overflow=hidden;" vertex="1" parent="-AxFv0E_fChkK30QdORc-311">
          <mxGeometry x="60" width="120" height="30" as="geometry" />
        </mxCell>
        <mxCell id="-AxFv0E_fChkK30QdORc-338" value="customer_address" style="shape=table;startSize=30;container=1;collapsible=1;childLayout=tableLayout;fixedRows=1;rowLines=0;fontStyle=1;align=center;resizeLast=1;" vertex="1" parent="1">
          <mxGeometry x="670" y="690" width="180" height="190" as="geometry" />
        </mxCell>
        <mxCell id="-AxFv0E_fChkK30QdORc-356" style="shape=partialRectangle;collapsible=0;dropTarget=0;pointerEvents=0;fillColor=none;top=0;left=0;bottom=1;right=0;points=[[0,0.5],[1,0.5]];portConstraint=eastwest;" vertex="1" parent="-AxFv0E_fChkK30QdORc-338">
          <mxGeometry y="30" width="180" height="30" as="geometry" />
        </mxCell>
        <mxCell id="-AxFv0E_fChkK30QdORc-357" value="PK" style="shape=partialRectangle;connectable=0;fillColor=none;top=0;left=0;bottom=0;right=0;fontStyle=1;overflow=hidden;" vertex="1" parent="-AxFv0E_fChkK30QdORc-356">
          <mxGeometry width="30" height="30" as="geometry" />
        </mxCell>
        <mxCell id="-AxFv0E_fChkK30QdORc-358" value="latitude" style="shape=partialRectangle;connectable=0;fillColor=none;top=0;left=0;bottom=0;right=0;align=left;spacingLeft=6;fontStyle=5;overflow=hidden;" vertex="1" parent="-AxFv0E_fChkK30QdORc-356">
          <mxGeometry x="30" width="150" height="30" as="geometry" />
        </mxCell>
        <mxCell id="-AxFv0E_fChkK30QdORc-359" style="shape=partialRectangle;collapsible=0;dropTarget=0;pointerEvents=0;fillColor=none;top=0;left=0;bottom=1;right=0;points=[[0,0.5],[1,0.5]];portConstraint=eastwest;" vertex="1" parent="-AxFv0E_fChkK30QdORc-338">
          <mxGeometry y="60" width="180" height="30" as="geometry" />
        </mxCell>
        <mxCell id="-AxFv0E_fChkK30QdORc-360" value="PK" style="shape=partialRectangle;connectable=0;fillColor=none;top=0;left=0;bottom=0;right=0;fontStyle=1;overflow=hidden;" vertex="1" parent="-AxFv0E_fChkK30QdORc-359">
          <mxGeometry width="30" height="30" as="geometry" />
        </mxCell>
        <mxCell id="-AxFv0E_fChkK30QdORc-361" value="longitude" style="shape=partialRectangle;connectable=0;fillColor=none;top=0;left=0;bottom=0;right=0;align=left;spacingLeft=6;fontStyle=5;overflow=hidden;" vertex="1" parent="-AxFv0E_fChkK30QdORc-359">
          <mxGeometry x="30" width="150" height="30" as="geometry" />
        </mxCell>
        <mxCell id="-AxFv0E_fChkK30QdORc-339" value="" style="shape=partialRectangle;collapsible=0;dropTarget=0;pointerEvents=0;fillColor=none;top=0;left=0;bottom=1;right=0;points=[[0,0.5],[1,0.5]];portConstraint=eastwest;" vertex="1" parent="-AxFv0E_fChkK30QdORc-338">
          <mxGeometry y="90" width="180" height="30" as="geometry" />
        </mxCell>
        <mxCell id="-AxFv0E_fChkK30QdORc-340" value="FK" style="shape=partialRectangle;connectable=0;fillColor=none;top=0;left=0;bottom=0;right=0;fontStyle=1;overflow=hidden;" vertex="1" parent="-AxFv0E_fChkK30QdORc-339">
          <mxGeometry width="30" height="30" as="geometry" />
        </mxCell>
        <mxCell id="-AxFv0E_fChkK30QdORc-341" value="akeed_customer_id" style="shape=partialRectangle;connectable=0;fillColor=none;top=0;left=0;bottom=0;right=0;align=left;spacingLeft=6;fontStyle=5;overflow=hidden;" vertex="1" parent="-AxFv0E_fChkK30QdORc-339">
          <mxGeometry x="30" width="150" height="30" as="geometry" />
        </mxCell>
        <mxCell id="-AxFv0E_fChkK30QdORc-342" value="" style="shape=partialRectangle;collapsible=0;dropTarget=0;pointerEvents=0;fillColor=none;top=0;left=0;bottom=0;right=0;points=[[0,0.5],[1,0.5]];portConstraint=eastwest;" vertex="1" parent="-AxFv0E_fChkK30QdORc-338">
          <mxGeometry y="120" width="180" height="30" as="geometry" />
        </mxCell>
        <mxCell id="-AxFv0E_fChkK30QdORc-343" value="" style="shape=partialRectangle;connectable=0;fillColor=none;top=0;left=0;bottom=0;right=0;editable=1;overflow=hidden;" vertex="1" parent="-AxFv0E_fChkK30QdORc-342">
          <mxGeometry width="30" height="30" as="geometry" />
        </mxCell>
        <mxCell id="-AxFv0E_fChkK30QdORc-344" value="location_number" style="shape=partialRectangle;connectable=0;fillColor=none;top=0;left=0;bottom=0;right=0;align=left;spacingLeft=6;overflow=hidden;" vertex="1" parent="-AxFv0E_fChkK30QdORc-342">
          <mxGeometry x="30" width="150" height="30" as="geometry" />
        </mxCell>
        <mxCell id="-AxFv0E_fChkK30QdORc-345" value="" style="shape=partialRectangle;collapsible=0;dropTarget=0;pointerEvents=0;fillColor=none;top=0;left=0;bottom=0;right=0;points=[[0,0.5],[1,0.5]];portConstraint=eastwest;" vertex="1" parent="-AxFv0E_fChkK30QdORc-338">
          <mxGeometry y="150" width="180" height="30" as="geometry" />
        </mxCell>
        <mxCell id="-AxFv0E_fChkK30QdORc-346" value="" style="shape=partialRectangle;connectable=0;fillColor=none;top=0;left=0;bottom=0;right=0;editable=1;overflow=hidden;" vertex="1" parent="-AxFv0E_fChkK30QdORc-345">
          <mxGeometry width="30" height="30" as="geometry" />
        </mxCell>
        <mxCell id="-AxFv0E_fChkK30QdORc-347" value="location_type" style="shape=partialRectangle;connectable=0;fillColor=none;top=0;left=0;bottom=0;right=0;align=left;spacingLeft=6;overflow=hidden;" vertex="1" parent="-AxFv0E_fChkK30QdORc-345">
          <mxGeometry x="30" width="150" height="30" as="geometry" />
        </mxCell>
        <mxCell id="-AxFv0E_fChkK30QdORc-352" style="edgeStyle=orthogonalEdgeStyle;rounded=0;orthogonalLoop=1;jettySize=auto;html=1;exitX=1;exitY=0.5;exitDx=0;exitDy=0;startArrow=ERone;startFill=0;endArrow=ERoneToMany;endFill=0;" edge="1" parent="1" source="-AxFv0E_fChkK30QdORc-274" target="-AxFv0E_fChkK30QdORc-339">
          <mxGeometry relative="1" as="geometry" />
        </mxCell>
        <mxCell id="-AxFv0E_fChkK30QdORc-368" value="vendor" style="shape=table;startSize=30;container=1;collapsible=1;childLayout=tableLayout;fixedRows=1;rowLines=0;fontStyle=1;align=center;resizeLast=1;" vertex="1" parent="1">
          <mxGeometry x="670" y="140" width="200" height="460" as="geometry" />
        </mxCell>
        <mxCell id="-AxFv0E_fChkK30QdORc-372" value="" style="shape=partialRectangle;collapsible=0;dropTarget=0;pointerEvents=0;fillColor=none;top=0;left=0;bottom=1;right=0;points=[[0,0.5],[1,0.5]];portConstraint=eastwest;" vertex="1" parent="-AxFv0E_fChkK30QdORc-368">
          <mxGeometry y="30" width="200" height="30" as="geometry" />
        </mxCell>
        <mxCell id="-AxFv0E_fChkK30QdORc-373" value="PK" style="shape=partialRectangle;connectable=0;fillColor=none;top=0;left=0;bottom=0;right=0;fontStyle=1;overflow=hidden;" vertex="1" parent="-AxFv0E_fChkK30QdORc-372">
          <mxGeometry width="60" height="30" as="geometry" />
        </mxCell>
        <mxCell id="-AxFv0E_fChkK30QdORc-374" value="venderID" style="shape=partialRectangle;connectable=0;fillColor=none;top=0;left=0;bottom=0;right=0;align=left;spacingLeft=6;fontStyle=5;overflow=hidden;" vertex="1" parent="-AxFv0E_fChkK30QdORc-372">
          <mxGeometry x="60" width="140" height="30" as="geometry" />
        </mxCell>
        <mxCell id="-AxFv0E_fChkK30QdORc-375" value="" style="shape=partialRectangle;collapsible=0;dropTarget=0;pointerEvents=0;fillColor=none;top=0;left=0;bottom=0;right=0;points=[[0,0.5],[1,0.5]];portConstraint=eastwest;" vertex="1" parent="-AxFv0E_fChkK30QdORc-368">
          <mxGeometry y="60" width="200" height="30" as="geometry" />
        </mxCell>
        <mxCell id="-AxFv0E_fChkK30QdORc-376" value="" style="shape=partialRectangle;connectable=0;fillColor=none;top=0;left=0;bottom=0;right=0;editable=1;overflow=hidden;" vertex="1" parent="-AxFv0E_fChkK30QdORc-375">
          <mxGeometry width="60" height="30" as="geometry" />
        </mxCell>
        <mxCell id="-AxFv0E_fChkK30QdORc-377" value="authentication_id" style="shape=partialRectangle;connectable=0;fillColor=none;top=0;left=0;bottom=0;right=0;align=left;spacingLeft=6;overflow=hidden;" vertex="1" parent="-AxFv0E_fChkK30QdORc-375">
          <mxGeometry x="60" width="140" height="30" as="geometry" />
        </mxCell>
        <mxCell id="-AxFv0E_fChkK30QdORc-378" value="" style="shape=partialRectangle;collapsible=0;dropTarget=0;pointerEvents=0;fillColor=none;top=0;left=0;bottom=0;right=0;points=[[0,0.5],[1,0.5]];portConstraint=eastwest;" vertex="1" parent="-AxFv0E_fChkK30QdORc-368">
          <mxGeometry y="90" width="200" height="30" as="geometry" />
        </mxCell>
        <mxCell id="-AxFv0E_fChkK30QdORc-379" value="" style="shape=partialRectangle;connectable=0;fillColor=none;top=0;left=0;bottom=0;right=0;editable=1;overflow=hidden;" vertex="1" parent="-AxFv0E_fChkK30QdORc-378">
          <mxGeometry width="60" height="30" as="geometry" />
        </mxCell>
        <mxCell id="-AxFv0E_fChkK30QdORc-380" value="latitude" style="shape=partialRectangle;connectable=0;fillColor=none;top=0;left=0;bottom=0;right=0;align=left;spacingLeft=6;overflow=hidden;" vertex="1" parent="-AxFv0E_fChkK30QdORc-378">
          <mxGeometry x="60" width="140" height="30" as="geometry" />
        </mxCell>
        <mxCell id="-AxFv0E_fChkK30QdORc-393" style="shape=partialRectangle;collapsible=0;dropTarget=0;pointerEvents=0;fillColor=none;top=0;left=0;bottom=0;right=0;points=[[0,0.5],[1,0.5]];portConstraint=eastwest;" vertex="1" parent="-AxFv0E_fChkK30QdORc-368">
          <mxGeometry y="120" width="200" height="30" as="geometry" />
        </mxCell>
        <mxCell id="-AxFv0E_fChkK30QdORc-394" style="shape=partialRectangle;connectable=0;fillColor=none;top=0;left=0;bottom=0;right=0;editable=1;overflow=hidden;" vertex="1" parent="-AxFv0E_fChkK30QdORc-393">
          <mxGeometry width="60" height="30" as="geometry" />
        </mxCell>
        <mxCell id="-AxFv0E_fChkK30QdORc-395" value="longitude" style="shape=partialRectangle;connectable=0;fillColor=none;top=0;left=0;bottom=0;right=0;align=left;spacingLeft=6;overflow=hidden;" vertex="1" parent="-AxFv0E_fChkK30QdORc-393">
          <mxGeometry x="60" width="140" height="30" as="geometry" />
        </mxCell>
        <mxCell id="-AxFv0E_fChkK30QdORc-390" style="shape=partialRectangle;collapsible=0;dropTarget=0;pointerEvents=0;fillColor=none;top=0;left=0;bottom=0;right=0;points=[[0,0.5],[1,0.5]];portConstraint=eastwest;" vertex="1" parent="-AxFv0E_fChkK30QdORc-368">
          <mxGeometry y="150" width="200" height="30" as="geometry" />
        </mxCell>
        <mxCell id="-AxFv0E_fChkK30QdORc-391" style="shape=partialRectangle;connectable=0;fillColor=none;top=0;left=0;bottom=0;right=0;editable=1;overflow=hidden;" vertex="1" parent="-AxFv0E_fChkK30QdORc-390">
          <mxGeometry width="60" height="30" as="geometry" />
        </mxCell>
        <mxCell id="-AxFv0E_fChkK30QdORc-392" value="vendor_category_en" style="shape=partialRectangle;connectable=0;fillColor=none;top=0;left=0;bottom=0;right=0;align=left;spacingLeft=6;overflow=hidden;" vertex="1" parent="-AxFv0E_fChkK30QdORc-390">
          <mxGeometry x="60" width="140" height="30" as="geometry" />
        </mxCell>
        <mxCell id="-AxFv0E_fChkK30QdORc-387" style="shape=partialRectangle;collapsible=0;dropTarget=0;pointerEvents=0;fillColor=none;top=0;left=0;bottom=0;right=0;points=[[0,0.5],[1,0.5]];portConstraint=eastwest;" vertex="1" parent="-AxFv0E_fChkK30QdORc-368">
          <mxGeometry y="180" width="200" height="30" as="geometry" />
        </mxCell>
        <mxCell id="-AxFv0E_fChkK30QdORc-388" style="shape=partialRectangle;connectable=0;fillColor=none;top=0;left=0;bottom=0;right=0;editable=1;overflow=hidden;" vertex="1" parent="-AxFv0E_fChkK30QdORc-387">
          <mxGeometry width="60" height="30" as="geometry" />
        </mxCell>
        <mxCell id="-AxFv0E_fChkK30QdORc-389" value="vendor_category_id" style="shape=partialRectangle;connectable=0;fillColor=none;top=0;left=0;bottom=0;right=0;align=left;spacingLeft=6;overflow=hidden;" vertex="1" parent="-AxFv0E_fChkK30QdORc-387">
          <mxGeometry x="60" width="140" height="30" as="geometry" />
        </mxCell>
        <mxCell id="-AxFv0E_fChkK30QdORc-402" style="shape=partialRectangle;collapsible=0;dropTarget=0;pointerEvents=0;fillColor=none;top=0;left=0;bottom=0;right=0;points=[[0,0.5],[1,0.5]];portConstraint=eastwest;" vertex="1" parent="-AxFv0E_fChkK30QdORc-368">
          <mxGeometry y="210" width="200" height="30" as="geometry" />
        </mxCell>
        <mxCell id="-AxFv0E_fChkK30QdORc-403" style="shape=partialRectangle;connectable=0;fillColor=none;top=0;left=0;bottom=0;right=0;editable=1;overflow=hidden;" vertex="1" parent="-AxFv0E_fChkK30QdORc-402">
          <mxGeometry width="60" height="30" as="geometry" />
        </mxCell>
        <mxCell id="-AxFv0E_fChkK30QdORc-404" value="delivery_charge" style="shape=partialRectangle;connectable=0;fillColor=none;top=0;left=0;bottom=0;right=0;align=left;spacingLeft=6;overflow=hidden;" vertex="1" parent="-AxFv0E_fChkK30QdORc-402">
          <mxGeometry x="60" width="140" height="30" as="geometry" />
        </mxCell>
        <mxCell id="-AxFv0E_fChkK30QdORc-399" style="shape=partialRectangle;collapsible=0;dropTarget=0;pointerEvents=0;fillColor=none;top=0;left=0;bottom=0;right=0;points=[[0,0.5],[1,0.5]];portConstraint=eastwest;" vertex="1" parent="-AxFv0E_fChkK30QdORc-368">
          <mxGeometry y="240" width="200" height="30" as="geometry" />
        </mxCell>
        <mxCell id="-AxFv0E_fChkK30QdORc-400" style="shape=partialRectangle;connectable=0;fillColor=none;top=0;left=0;bottom=0;right=0;editable=1;overflow=hidden;" vertex="1" parent="-AxFv0E_fChkK30QdORc-399">
          <mxGeometry width="60" height="30" as="geometry" />
        </mxCell>
        <mxCell id="-AxFv0E_fChkK30QdORc-401" value="serving_distance" style="shape=partialRectangle;connectable=0;fillColor=none;top=0;left=0;bottom=0;right=0;align=left;spacingLeft=6;overflow=hidden;" vertex="1" parent="-AxFv0E_fChkK30QdORc-399">
          <mxGeometry x="60" width="140" height="30" as="geometry" />
        </mxCell>
        <mxCell id="-AxFv0E_fChkK30QdORc-396" style="shape=partialRectangle;collapsible=0;dropTarget=0;pointerEvents=0;fillColor=none;top=0;left=0;bottom=0;right=0;points=[[0,0.5],[1,0.5]];portConstraint=eastwest;" vertex="1" parent="-AxFv0E_fChkK30QdORc-368">
          <mxGeometry y="270" width="200" height="30" as="geometry" />
        </mxCell>
        <mxCell id="-AxFv0E_fChkK30QdORc-397" style="shape=partialRectangle;connectable=0;fillColor=none;top=0;left=0;bottom=0;right=0;editable=1;overflow=hidden;" vertex="1" parent="-AxFv0E_fChkK30QdORc-396">
          <mxGeometry width="60" height="30" as="geometry" />
        </mxCell>
        <mxCell id="-AxFv0E_fChkK30QdORc-398" value="is_open" style="shape=partialRectangle;connectable=0;fillColor=none;top=0;left=0;bottom=0;right=0;align=left;spacingLeft=6;overflow=hidden;" vertex="1" parent="-AxFv0E_fChkK30QdORc-396">
          <mxGeometry x="60" width="140" height="30" as="geometry" />
        </mxCell>
        <mxCell id="-AxFv0E_fChkK30QdORc-411" style="shape=partialRectangle;collapsible=0;dropTarget=0;pointerEvents=0;fillColor=none;top=0;left=0;bottom=0;right=0;points=[[0,0.5],[1,0.5]];portConstraint=eastwest;" vertex="1" parent="-AxFv0E_fChkK30QdORc-368">
          <mxGeometry y="300" width="200" height="30" as="geometry" />
        </mxCell>
        <mxCell id="-AxFv0E_fChkK30QdORc-412" style="shape=partialRectangle;connectable=0;fillColor=none;top=0;left=0;bottom=0;right=0;editable=1;overflow=hidden;" vertex="1" parent="-AxFv0E_fChkK30QdORc-411">
          <mxGeometry width="60" height="30" as="geometry" />
        </mxCell>
        <mxCell id="-AxFv0E_fChkK30QdORc-413" value="OpeningTime " style="shape=partialRectangle;connectable=0;fillColor=none;top=0;left=0;bottom=0;right=0;align=left;spacingLeft=6;overflow=hidden;" vertex="1" parent="-AxFv0E_fChkK30QdORc-411">
          <mxGeometry x="60" width="140" height="30" as="geometry" />
        </mxCell>
        <mxCell id="-AxFv0E_fChkK30QdORc-408" style="shape=partialRectangle;collapsible=0;dropTarget=0;pointerEvents=0;fillColor=none;top=0;left=0;bottom=0;right=0;points=[[0,0.5],[1,0.5]];portConstraint=eastwest;" vertex="1" parent="-AxFv0E_fChkK30QdORc-368">
          <mxGeometry y="330" width="200" height="30" as="geometry" />
        </mxCell>
        <mxCell id="-AxFv0E_fChkK30QdORc-409" style="shape=partialRectangle;connectable=0;fillColor=none;top=0;left=0;bottom=0;right=0;editable=1;overflow=hidden;" vertex="1" parent="-AxFv0E_fChkK30QdORc-408">
          <mxGeometry width="60" height="30" as="geometry" />
        </mxCell>
        <mxCell id="-AxFv0E_fChkK30QdORc-410" value="OpeningTime2&#xa;" style="shape=partialRectangle;connectable=0;fillColor=none;top=0;left=0;bottom=0;right=0;align=left;spacingLeft=6;overflow=hidden;" vertex="1" parent="-AxFv0E_fChkK30QdORc-408">
          <mxGeometry x="60" width="140" height="30" as="geometry" />
        </mxCell>
        <mxCell id="-AxFv0E_fChkK30QdORc-405" style="shape=partialRectangle;collapsible=0;dropTarget=0;pointerEvents=0;fillColor=none;top=0;left=0;bottom=0;right=0;points=[[0,0.5],[1,0.5]];portConstraint=eastwest;" vertex="1" parent="-AxFv0E_fChkK30QdORc-368">
          <mxGeometry y="360" width="200" height="30" as="geometry" />
        </mxCell>
        <mxCell id="-AxFv0E_fChkK30QdORc-406" style="shape=partialRectangle;connectable=0;fillColor=none;top=0;left=0;bottom=0;right=0;editable=1;overflow=hidden;" vertex="1" parent="-AxFv0E_fChkK30QdORc-405">
          <mxGeometry width="60" height="30" as="geometry" />
        </mxCell>
        <mxCell id="-AxFv0E_fChkK30QdORc-407" value="prepration_time" style="shape=partialRectangle;connectable=0;fillColor=none;top=0;left=0;bottom=0;right=0;align=left;spacingLeft=6;overflow=hidden;" vertex="1" parent="-AxFv0E_fChkK30QdORc-405">
          <mxGeometry x="60" width="140" height="30" as="geometry" />
        </mxCell>
        <mxCell id="-AxFv0E_fChkK30QdORc-420" style="shape=partialRectangle;collapsible=0;dropTarget=0;pointerEvents=0;fillColor=none;top=0;left=0;bottom=0;right=0;points=[[0,0.5],[1,0.5]];portConstraint=eastwest;" vertex="1" parent="-AxFv0E_fChkK30QdORc-368">
          <mxGeometry y="390" width="200" height="30" as="geometry" />
        </mxCell>
        <mxCell id="-AxFv0E_fChkK30QdORc-421" style="shape=partialRectangle;connectable=0;fillColor=none;top=0;left=0;bottom=0;right=0;editable=1;overflow=hidden;" vertex="1" parent="-AxFv0E_fChkK30QdORc-420">
          <mxGeometry width="60" height="30" as="geometry" />
        </mxCell>
        <mxCell id="-AxFv0E_fChkK30QdORc-422" value="discount_percentage" style="shape=partialRectangle;connectable=0;fillColor=none;top=0;left=0;bottom=0;right=0;align=left;spacingLeft=6;overflow=hidden;" vertex="1" parent="-AxFv0E_fChkK30QdORc-420">
          <mxGeometry x="60" width="140" height="30" as="geometry" />
        </mxCell>
        <mxCell id="-AxFv0E_fChkK30QdORc-417" style="shape=partialRectangle;collapsible=0;dropTarget=0;pointerEvents=0;fillColor=none;top=0;left=0;bottom=0;right=0;points=[[0,0.5],[1,0.5]];portConstraint=eastwest;" vertex="1" parent="-AxFv0E_fChkK30QdORc-368">
          <mxGeometry y="420" width="200" height="30" as="geometry" />
        </mxCell>
        <mxCell id="-AxFv0E_fChkK30QdORc-418" style="shape=partialRectangle;connectable=0;fillColor=none;top=0;left=0;bottom=0;right=0;editable=1;overflow=hidden;" vertex="1" parent="-AxFv0E_fChkK30QdORc-417">
          <mxGeometry width="60" height="30" as="geometry" />
        </mxCell>
        <mxCell id="-AxFv0E_fChkK30QdORc-419" value="vendor_rating" style="shape=partialRectangle;connectable=0;fillColor=none;top=0;left=0;bottom=0;right=0;align=left;spacingLeft=6;overflow=hidden;" vertex="1" parent="-AxFv0E_fChkK30QdORc-417">
          <mxGeometry x="60" width="140" height="30" as="geometry" />
        </mxCell>
        <mxCell id="-AxFv0E_fChkK30QdORc-423" style="edgeStyle=orthogonalEdgeStyle;rounded=0;orthogonalLoop=1;jettySize=auto;html=1;entryX=1;entryY=0.5;entryDx=0;entryDy=0;startArrow=ERone;startFill=0;endArrow=ERoneToMany;endFill=0;" edge="1" parent="1" source="-AxFv0E_fChkK30QdORc-369" target="-AxFv0E_fChkK30QdORc-296">
          <mxGeometry relative="1" as="geometry" />
        </mxCell>
        <mxCell id="-AxFv0E_fChkK30QdORc-424" style="edgeStyle=orthogonalEdgeStyle;rounded=0;orthogonalLoop=1;jettySize=auto;html=1;exitX=0;exitY=0.5;exitDx=0;exitDy=0;entryX=1;entryY=0.5;entryDx=0;entryDy=0;startArrow=ERone;startFill=0;endArrow=ERoneToMany;endFill=0;" edge="1" parent="1" source="-AxFv0E_fChkK30QdORc-372" target="-AxFv0E_fChkK30QdORc-296">
          <mxGeometry relative="1" as="geometry" />
        </mxCell>
      </root>
    </mxGraphModel>
  </diagram>
</mxfile>
